<?xml version="1.0" encoding="UTF-8" standalone="no"?>
<!-- Generator: Adobe Illustrator 15.1.0, SVG Export Plug-In . SVG Version: 6.00 Build 0)  -->

<svg
   xmlns:dc="http://purl.org/dc/elements/1.1/"
   xmlns:cc="http://creativecommons.org/ns#"
   xmlns:rdf="http://www.w3.org/1999/02/22-rdf-syntax-ns#"
   xmlns:svg="http://www.w3.org/2000/svg"
   xmlns="http://www.w3.org/2000/svg"
   xmlns:sodipodi="http://sodipodi.sourceforge.net/DTD/sodipodi-0.dtd"
   xmlns:inkscape="http://www.inkscape.org/namespaces/inkscape"
   version="1.1"
   x="0px"
   y="0px"
   width="251.33099"
   height="300"
   viewBox="0 0 251.33099 300"
   enable-background="new 0 0 255 50"
   xml:space="preserve"
   id="svg34"
   sodipodi:docname="Husqvarna_logo_ArtWW.svg"
   inkscape:version="0.92.1 r15371"><metadata
   id="metadata40"><rdf:RDF><cc:Work
       rdf:about=""><dc:format>image/svg+xml</dc:format><dc:type
         rdf:resource="http://purl.org/dc/dcmitype/StillImage" /><dc:title></dc:title></cc:Work></rdf:RDF></metadata><defs
   id="defs38" /><sodipodi:namedview
   pagecolor="#ffffff"
   bordercolor="#666666"
   borderopacity="1"
   objecttolerance="10"
   gridtolerance="10"
   guidetolerance="10"
   inkscape:pageopacity="0"
   inkscape:pageshadow="2"
   inkscape:window-width="1264"
   inkscape:window-height="723"
   id="namedview36"
   showgrid="false"
   inkscape:zoom="1.4072812"
   inkscape:cx="186.05894"
   inkscape:cy="125.95352"
   inkscape:window-x="-8"
   inkscape:window-y="-8"
   inkscape:window-maximized="1"
   inkscape:current-layer="svg34"
   units="px" />
<g
   id="g30"
   transform="matrix(6.8466627,0,0,6.8466577,-70.794492,-21.169866)">
	
	
	
	
	
	
	
	
	<path
   d="m 37.327,17.563 h -5.061 v 6.15 c 0,1.213 0.05,1.213 -3.546,1.213 -3.666,0 -3.653,0 -3.653,-1.213 v -6.15 H 20.08 v 20.496 h 4.987 v -7.4 c 0,-1.175 -0.012,-1.175 3.653,-1.175 3.596,0 3.546,0 3.546,1.175 v 7.4 h 5.061 V 17.563 M 28.72,41.646 c -4.29,0 -5.724,0 -7.85,-0.588 -0.736,-0.257 -2.054,-0.624 -3.009,-2.13 -1.759,-3.009 -1.759,-8.663 -1.759,-11.382 0,-2.719 0,-7.528 1.759,-10.5 0.955,-1.543 2.273,-1.911 3.009,-2.167 2.125,-0.551 3.56,-0.551 7.85,-0.551 4.184,0 5.612,0 7.78,0.551 0.73,0.256 2.016,0.624 2.893,2.167 1.912,2.972 1.912,8.111 1.912,10.829 0,2.646 0,8.044 -1.912,11.053 -0.877,1.506 -2.163,1.874 -2.893,2.13 -2.168,0.588 -3.596,0.588 -7.78,0.588 M 28.646,3.092 v 0 c -1.869,0 -3.077,0.326 -3.591,0.441 0.256,2.383 0.183,4.295 0,4.846 -0.46,1.351 -2.508,2.164 -4.127,2.164 -0.583,0 -1.108,-0.105 -1.486,-0.327 -1.58,-0.956 -1.213,-3.858 -1.213,-5.769 0,0 -2.313,0.57 -3.743,1.102 -1.158,0.438 -2.894,1.287 -2.894,1.287 -0.367,2.425 0,5.985 2.385,7.198 -1.8,1.801 -2.385,3.931 -3.155,7.857 -0.391,2.203 -0.479,3.99 -0.482,5.524 v 0.146 c 10e-4,0.861 0.029,1.645 0.041,2.374 0.184,2.787 0.184,4.295 0.845,6.83 0.951,2.897 1.516,4.263 3.445,6.278 3.492,3.644 8.972,3.858 12.727,3.858 0.463,0 0.901,-0.003 1.304,-0.004 0.559,0.002 1.186,0.012 1.862,0.012 3.762,0 9.037,-0.307 12.245,-3.867 1.846,-2.044 2.31,-3.38 3.229,-6.278 0.809,-2.535 0.697,-4.043 0.956,-6.83 0.073,-2.059 0.185,-4.52 -0.515,-8.043 -0.771,-3.926 -1.359,-6.057 -3.155,-7.857 2.384,-1.213 2.714,-4.773 2.384,-7.198 0,0 -1.824,-0.904 -3.045,-1.359 -1.329,-0.49 -3.483,-1.029 -3.483,-1.029 0,1.911 0.216,4.813 -1.212,5.769 -0.388,0.222 -0.924,0.327 -1.512,0.327 -1.645,0 -3.704,-0.813 -4.137,-2.164 -0.184,-0.551 -0.367,-2.463 0,-4.846 C 31.801,3.418 30.373,3.092 28.646,3.092"
   id="path26"
   inkscape:connector-curvature="0"
   style="fill:#003985" />
	
</g>

</svg>