<?xml version="1.0" standalone="no"?>
<!DOCTYPE svg PUBLIC "-//W3C//DTD SVG 20010904//EN"
 "http://www.w3.org/TR/2001/REC-SVG-20010904/DTD/svg10.dtd">
<svg version="1.0" xmlns="http://www.w3.org/2000/svg"
 width="512.000000pt" height="512.000000pt" viewBox="0 0 512.000000 512.000000"
 preserveAspectRatio="xMidYMid meet">

<g transform="translate(0.000000,512.000000) scale(0.100000,-0.100000)"
fill="#000000" stroke="none">
<path d="M2124 5022 c-19 -11 -22 -141 -4 -152 8 -5 121 -6 261 -3 180 5 248
3 253 -5 5 -9 75 -12 241 -12 276 0 266 -4 260 96 -3 36 -7 69 -10 75 -7 11
-984 12 -1001 1z"/>
<path d="M1773 4854 c-9 -4 -13 -31 -13 -85 l0 -79 68 -1 c179 -1 258 3 268
14 6 8 8 38 5 82 l-6 70 -155 2 c-85 1 -161 -1 -167 -3z"/>
<path d="M3147 4832 c-25 -27 -24 -149 1 -155 9 -3 90 -4 178 -3 l162 1 -5
-87 c-3 -62 -2 -88 6 -88 8 0 9 -6 3 -17 -5 -10 -10 -79 -10 -153 0 -74 -1
-140 -1 -146 -1 -13 -111 -17 -126 -4 -8 7 -17 4 -29 -8 -12 -14 -16 -39 -17
-96 l-1 -77 -78 2 c-43 1 -83 -2 -89 -6 -8 -4 -11 -34 -10 -87 l2 -80 -240 1
c-194 1 -243 -2 -252 -13 -8 -10 -12 -115 -14 -357 l-2 -344 -435 0 -435 0 -5
85 -5 85 -75 1 c-41 0 -81 2 -88 2 -9 2 -12 19 -11 60 5 119 10 111 -83 114
l-83 3 0 170 0 170 81 3 81 3 9 -173 9 -173 74 -3 c53 -2 77 1 83 10 4 7 8 45
8 83 -1 39 -1 145 0 236 0 91 -2 174 -6 183 -6 14 -18 17 -78 15 -39 -2 -77 0
-84 5 -9 6 -11 59 -6 235 4 125 4 240 0 255 -7 28 -7 28 -78 24 -97 -5 -98 -8
-98 -179 0 -131 -1 -139 -22 -153 -13 -10 -44 -16 -74 -16 -29 0 -56 -5 -61
-12 -6 -7 -13 -43 -15 -79 -3 -37 -9 -72 -12 -78 -4 -6 -34 -11 -66 -11 -87 0
-90 -3 -90 -70 0 -75 14 -90 85 -90 72 0 85 -14 85 -93 0 -34 -4 -67 -8 -74
-11 -17 -58 -33 -101 -33 -49 0 -61 -14 -61 -70 0 -25 5 -51 12 -58 7 -7 36
-12 65 -12 74 0 93 -20 93 -100 0 -80 -19 -100 -94 -100 -31 0 -58 -5 -64 -12
-5 -7 -12 -39 -14 -70 -6 -76 -18 -88 -84 -88 -69 0 -94 -22 -94 -83 0 -66 20
-87 84 -87 73 0 88 -14 94 -86 2 -32 9 -65 14 -71 8 -9 49 -13 144 -13 73 0
144 -4 158 -10 25 -9 26 -13 26 -83 0 -100 -12 -115 -93 -119 l-62 -3 -3 -76
-3 -77 -31 -6 c-17 -3 -52 -6 -79 -6 -26 0 -51 -5 -55 -11 -10 -17 -4 -463 6
-473 6 -6 31 -9 57 -7 84 4 87 -3 91 -184 4 -206 14 -195 -170 -195 -167 0
-178 -6 -178 -94 0 -31 -5 -58 -12 -63 -7 -6 -40 -13 -73 -16 -71 -7 -85 -22
-85 -89 0 -67 -23 -88 -93 -88 -29 0 -58 -5 -65 -12 -9 -9 -12 -95 -12 -323 0
-358 -3 -345 87 -345 65 0 83 -19 83 -87 0 -65 19 -83 87 -83 69 0 86 -20 85
-100 -1 -41 4 -64 14 -75 13 -13 72 -15 420 -15 l404 0 10 26 c6 14 10 40 10
57 0 64 18 81 95 92 l70 10 6 73 c3 40 11 78 18 85 7 7 47 13 92 16 90 4 87 0
91 106 2 41 7 60 16 59 6 -1 80 -2 162 -2 l150 -2 0 -61 c0 -90 8 -99 84 -99
79 0 96 15 96 88 0 70 14 82 100 82 60 0 71 -3 84 -22 9 -12 16 -43 16 -68 0
-25 4 -51 9 -59 6 -9 37 -18 77 -22 37 -5 69 -10 71 -12 2 -2 7 -34 12 -71 4
-40 13 -71 22 -77 8 -5 34 -9 59 -9 72 0 90 -19 90 -95 0 -44 5 -68 16 -79 13
-14 65 -16 414 -16 455 0 430 -5 430 83 0 77 17 96 84 94 73 -3 86 10 86 88 0
78 15 95 87 95 86 0 83 -10 83 346 0 228 -3 313 -12 322 -7 7 -36 12 -65 12
-72 0 -93 21 -93 94 0 66 -10 76 -87 83 -70 6 -83 20 -83 85 0 67 -23 88 -93
88 -29 0 -58 5 -65 12 -9 9 -12 77 -12 243 0 274 1 269 -91 278 -34 3 -66 10
-71 15 -5 5 -12 38 -15 73 -7 76 -19 88 -86 89 -80 0 -87 8 -87 100 0 74 -1
80 -22 85 -13 3 -126 1 -251 -3 -141 -4 -232 -3 -238 2 -5 6 -9 42 -9 80 0 39
-4 77 -9 85 -7 11 -43 13 -175 12 l-166 -2 0 80 c0 58 4 81 13 82 6 1 40 0 75
-1 34 -1 69 3 76 9 9 8 12 34 11 86 -2 46 2 78 8 82 6 4 43 7 82 7 l70 1 5 90
5 90 85 0 85 0 5 -175 5 -175 85 0 85 0 5 85 5 85 170 0 170 0 3 -86 c3 -86 3
-87 30 -90 15 -2 50 -2 77 1 l50 5 0 73 c0 105 -9 102 265 102 264 0 255 -3
262 97 2 35 7 66 11 70 4 4 38 7 75 7 37 1 73 5 80 9 8 5 12 34 12 82 0 85 0
85 95 85 41 0 66 5 74 14 8 9 11 60 9 156 -2 115 -6 144 -18 151 -8 4 -46 11
-85 16 l-70 8 -5 72 c-3 39 -9 75 -13 80 -5 4 -44 10 -88 12 l-79 3 0 68 c0
97 -6 100 -182 100 -159 0 -158 -1 -158 98 0 75 -16 92 -88 92 -78 0 -82 8
-82 158 0 70 -3 137 -6 148 -8 29 -44 44 -104 44 -27 0 -52 5 -55 11 -4 6 -9
38 -12 72 -6 75 -19 87 -89 87 -81 0 -84 3 -84 75 0 93 -4 95 -187 95 -133 0
-152 -2 -166 -18z m510 -338 c-3 -3 -12 -4 -19 -1 -8 3 -5 6 6 6 11 1 17 -2
13 -5z m-2184 -2111 c-7 -2 -21 -2 -30 0 -10 3 -4 5 12 5 17 0 24 -2 18 -5z
m87 -64 c0 -38 -4 -68 -9 -65 -4 3 -6 28 -3 56 3 32 0 55 -8 65 -10 12 -10 15
4 15 13 0 16 -12 16 -71z m1585 -174 l0 -80 -170 0 -170 0 2 68 c1 38 3 74 6
80 3 9 51 12 168 12 l164 0 0 -80z m-1215 -175 l5 -84 75 -1 75 0 6 -80 c3
-44 3 -83 0 -87 -4 -4 -115 -11 -248 -14 -190 -6 -245 -4 -258 6 -12 10 -15
41 -15 176 l0 163 93 4 c50 2 130 3 177 3 l85 -1 5 -85z m1745 -68 c7 -213 12
-202 -92 -202 l-85 0 3 -75 c2 -44 -1 -79 -7 -85 -7 -7 -42 -10 -85 -8 l-74 3
-3 88 -3 87 86 0 85 0 2 88 c2 94 6 220 7 239 1 10 98 22 153 18 4 0 10 -69
13 -153z m-1229 -23 c4 -7 8 -44 8 -85 l2 -73 -81 -3 c-44 -2 -83 -2 -87 0
-10 4 -11 156 -1 165 11 12 151 8 159 -4z m338 -40 c-3 -5 -10 -7 -15 -3 -5 3
-7 10 -3 15 3 5 10 7 15 3 5 -3 7 -10 3 -15z m400 -16 c-9 -52 -14 -54 -14 -5
0 23 5 42 10 42 7 0 8 -14 4 -37z m116 21 c0 -8 -4 -12 -10 -9 -5 3 -10 10
-10 16 0 5 5 9 10 9 6 0 10 -7 10 -16z m-523 -71 c-3 -10 -5 -4 -5 12 0 17 2
24 5 18 2 -7 2 -21 0 -30z m520 0 c-3 -10 -5 -4 -5 12 0 17 2 24 5 18 2 -7 2
-21 0 -30z m3 -40 c0 -9 -20 -13 -65 -13 -45 0 -65 4 -65 13 0 8 20 12 65 12
45 0 65 -4 65 -12z m-679 -108 l2 -80 -81 0 c-45 0 -82 3 -82 8 0 4 0 41 0 82
l0 74 73 3 c39 2 75 1 79 -2 4 -3 8 -41 9 -85z m519 69 c7 -7 10 -68 8 -175
l-3 -164 -165 3 c-91 2 -167 5 -169 7 -2 2 -5 41 -7 87 -2 46 -5 118 -8 160
-4 66 -2 79 12 87 23 13 318 9 332 -5z m-1920 -604 l0 -80 -80 0 -80 0 0 80 0
80 80 0 80 0 0 -80z m-170 -259 l0 -169 -77 -4 c-43 -2 -80 -2 -82 -1 -2 2 -6
79 -8 173 l-4 170 85 0 86 0 0 -169z m2268 84 c2 -44 5 -122 8 -173 l5 -93 87
-1 c144 -2 415 3 423 7 3 3 10 81 14 175 l7 171 76 -3 76 -3 4 -155 c1 -85 0
-164 -2 -175 -5 -18 -12 -20 -86 -17 l-80 4 0 -75 c0 -42 -2 -81 -5 -89 -8
-19 -505 -16 -515 3 -4 8 -8 41 -8 74 0 33 -1 65 -1 72 -1 8 -27 13 -78 15
l-78 3 -3 160 c-1 87 0 165 3 173 3 9 24 12 77 10 l73 -3 3 -80z m-1763 -73
c-10 -10 -11 3 -5 78 l5 75 3 -74 c2 -40 0 -76 -3 -79z m1222 106 c-3 -7 -5
-2 -5 12 0 14 2 19 5 13 2 -7 2 -19 0 -25z m-1 -106 c-11 -10 -14 3 -7 38 l6
35 3 -33 c2 -19 1 -36 -2 -40z m-86 2 c0 -2 -9 -4 -21 -4 -11 0 -18 4 -14 10
5 8 35 3 35 -6z m970 6 c0 -5 -10 -10 -22 -10 -19 0 -20 2 -8 10 19 13 30 13
30 0z m-2357 -7 c-7 -2 -21 -2 -30 0 -10 3 -4 5 12 5 17 0 24 -2 18 -5z m44 1
c-3 -3 -12 -4 -19 -1 -8 3 -5 6 6 6 11 1 17 -2 13 -5z m106 -1 c-7 -2 -19 -2
-25 0 -7 3 -2 5 12 5 14 0 19 -2 13 -5z m1294 1 c-3 -3 -12 -4 -19 -1 -8 3 -5
6 6 6 11 1 17 -2 13 -5z m831 -1 c-10 -2 -28 -2 -40 0 -13 2 -5 4 17 4 22 1
32 -1 23 -4z m-1842 -25 c8 -12 9 -152 2 -164 -4 -5 -39 -7 -80 -4 l-73 5 -3
79 c-2 57 1 82 10 88 17 11 137 8 144 -4z m879 -138 c4 -6 -6 -10 -22 -9 -25
0 -26 1 -8 9 11 5 21 9 22 9 1 1 5 -3 8 -9z m-1227 -32 c114 2 168 -1 178 -9
16 -13 20 -125 5 -148 -12 -19 -508 -22 -516 -3 -6 16 -7 157 -1 163 2 2 42 2
88 -1 45 -2 157 -3 246 -2z"/>
<path d="M2639 4695 c-5 -5 -49 -12 -97 -15 -48 -3 -86 -8 -84 -12 1 -5 2 -80
2 -169 l0 -160 78 0 c42 0 115 -3 161 -7 125 -11 121 -17 121 187 0 164 -1
168 -22 179 -28 14 -145 11 -159 -3z"/>
<path d="M1658 4683 c-78 -4 -81 -8 -76 -108 l3 -60 79 -3 c57 -2 82 1 87 10
5 7 9 45 9 84 0 56 -3 73 -16 78 -9 3 -16 5 -17 4 -1 -1 -32 -3 -69 -5z"/>
<path d="M3504 2569 c-4 -6 -6 -33 -6 -60 1 -98 -6 -89 71 -89 38 0 75 2 83 5
14 5 16 123 3 145 -9 14 -142 13 -151 -1z"/>
</g>
</svg>
