<?xml version="1.0" standalone="no"?>
<!DOCTYPE svg PUBLIC "-//W3C//DTD SVG 20010904//EN"
 "http://www.w3.org/TR/2001/REC-SVG-20010904/DTD/svg10.dtd">
<svg version="1.0" xmlns="http://www.w3.org/2000/svg"
 width="160.000000pt" height="160.000000pt" viewBox="0 0 160.000000 160.000000"
 preserveAspectRatio="xMidYMid meet">

<g transform="translate(0.000000,160.000000) scale(0.100000,-0.100000)"
fill="#000000" stroke="none">
<path d="M100 1565 c-7 -9 -11 -18 -8 -20 3 -3 11 1 18 10 7 9 11 18 8 20 -3
3 -11 -1 -18 -10z"/>
<path d="M1490 1562 c6 -13 14 -21 18 -18 3 4 -2 14 -12 24 -18 16 -18 16 -6
-6z"/>
<path d="M114 1545 c-6 -14 42 -666 52 -719 4 -19 3 -26 -5 -22 -6 4 -11 0
-11 -8 0 -14 71 -16 650 -16 392 0 650 4 650 10 0 5 -4 11 -9 14 -4 3 -7 16
-5 28 10 63 55 702 50 714 -8 21 -1364 21 -1372 -1z"/>
<path d="M192 762 c-7 -5 -14 -22 -15 -38 -2 -29 -1 -29 56 -32 33 -2 65 2 72
8 9 8 15 8 20 0 8 -13 60 -13 85 0 13 7 21 7 25 0 7 -12 55 -13 73 -1 8 5 12
21 10 37 -3 27 -6 29 -43 29 -35 0 -41 -3 -44 -25 l-4 -25 -6 25 c-6 20 -14
26 -44 28 -31 3 -39 -1 -45 -19 l-9 -23 -5 22 c-5 19 -13 22 -60 22 -29 0 -59
-4 -66 -8z"/>
<path d="M534 756 c-3 -8 -4 -25 -2 -38 3 -20 9 -23 43 -23 39 0 40 1 40 35 0
33 -2 35 -38 38 -26 2 -39 -1 -43 -12z"/>
<path d="M634 756 c-3 -8 -4 -25 -2 -38 2 -18 10 -24 36 -26 18 -2 39 1 46 7
9 7 16 7 23 0 6 -6 26 -9 44 -7 32 3 34 6 34 38 0 34 -1 35 -40 35 -35 0 -41
-3 -44 -25 l-4 -25 -6 25 c-6 20 -14 26 -44 28 -26 2 -39 -1 -43 -12z"/>
<path d="M834 756 c-3 -8 -4 -25 -2 -38 3 -20 9 -23 43 -23 39 0 40 1 40 35 0
33 -2 35 -38 38 -26 2 -39 -1 -43 -12z"/>
<path d="M934 756 c-3 -8 -4 -25 -2 -38 3 -20 9 -23 43 -23 39 0 40 1 40 35 0
33 -2 35 -38 38 -26 2 -39 -1 -43 -12z"/>
<path d="M1034 756 c-3 -8 -4 -25 -2 -38 3 -20 9 -23 43 -23 39 0 40 1 40 35
0 33 -2 35 -38 38 -26 2 -39 -1 -43 -12z"/>
<path d="M1134 756 c-3 -8 -4 -25 -2 -38 3 -20 9 -23 43 -23 39 0 40 1 40 35
0 33 -2 35 -38 38 -26 2 -39 -1 -43 -12z"/>
<path d="M1234 756 c-3 -8 -4 -25 -2 -38 2 -18 10 -24 35 -26 18 -2 41 2 52 7
13 7 22 8 26 1 7 -12 55 -13 72 -2 19 12 3 62 -22 68 -38 9 -60 1 -64 -26 l-4
-25 -6 25 c-6 20 -14 26 -44 28 -26 2 -39 -1 -43 -12z"/>
<path d="M167 663 c-4 -3 -7 -19 -7 -35 l0 -29 83 3 82 3 3 33 3 32 -79 0
c-43 0 -82 -3 -85 -7z"/>
<path d="M347 663 c-4 -3 -7 -19 -7 -35 0 -26 2 -28 44 -28 40 0 44 2 49 27 3
16 3 31 0 35 -5 10 -77 11 -86 1z"/>
<path d="M446 644 c-9 -36 3 -46 50 -42 36 3 39 6 42 36 3 32 3 32 -41 32 -40
0 -46 -3 -51 -26z"/>
<path d="M550 634 l0 -35 43 3 c39 3 42 5 45 36 3 32 3 32 -42 32 -46 0 -46 0
-46 -36z"/>
<path d="M652 638 c3 -31 6 -33 46 -36 l42 -3 0 35 c0 36 0 36 -46 36 -45 0
-45 0 -42 -32z"/>
<path d="M752 638 l3 -33 95 0 95 0 0 30 c0 28 -3 30 -41 33 -34 3 -42 -1 -52
-20 l-11 -23 0 23 c-1 19 -6 22 -47 22 -45 0 -45 0 -42 -32z"/>
<path d="M960 635 c0 -35 0 -35 45 -35 45 0 45 0 45 35 0 35 0 35 -45 35 -45
0 -45 0 -45 -35z"/>
<path d="M1062 638 c3 -30 6 -33 41 -36 21 -2 45 2 53 9 10 8 14 8 14 0 0 -14
77 -15 85 0 4 5 4 21 1 35 -5 20 -12 24 -47 24 -32 0 -41 -4 -49 -22 l-9 -23
0 23 c-1 19 -6 22 -47 22 -45 0 -45 0 -42 -32z"/>
<path d="M1272 638 l3 -33 74 -3 c82 -3 97 4 87 42 -6 25 -9 26 -87 26 l-80 0
3 -32z"/>
<path d="M233 583 l-83 -4 0 -34 0 -35 111 0 110 0 -3 38 c-3 42 2 41 -135 35z"/>
<path d="M388 564 c-18 -39 -4 -56 44 -52 40 3 43 5 46 35 3 27 -1 33 -20 37
-41 8 -60 3 -70 -20z"/>
<path d="M508 583 c-13 -3 -18 -15 -18 -39 0 -34 0 -34 46 -34 l45 0 -3 38
c-3 32 -7 37 -28 39 -14 0 -33 -1 -42 -4z"/>
<path d="M599 563 c-16 -42 -5 -55 43 -51 39 3 43 6 46 32 4 33 -10 46 -51 46
-21 0 -30 -7 -38 -27z"/>
<path d="M712 582 c-8 -5 -12 -22 -10 -38 l3 -29 95 0 95 0 3 32 c3 27 -1 33
-22 39 -37 9 -59 1 -72 -25 l-12 -24 -4 24 c-2 18 -10 25 -33 27 -16 1 -36 -2
-43 -6z"/>
<path d="M914 576 c-3 -8 -4 -25 -2 -38 2 -19 10 -23 46 -26 l43 -3 -3 38 c-3
36 -5 38 -41 41 -26 2 -39 -1 -43 -12z"/>
<path d="M1020 576 c-6 -8 -10 -25 -8 -38 3 -20 10 -23 51 -26 l47 -3 0 34 c0
23 -6 37 -16 41 -27 10 -61 7 -74 -8z"/>
<path d="M1124 577 c-3 -9 -4 -26 -2 -39 3 -20 9 -23 48 -23 44 0 45 1 42 30
-4 37 -2 35 -46 42 -27 4 -37 2 -42 -10z"/>
<path d="M1232 577 c-8 -9 -10 -26 -6 -41 6 -26 6 -26 115 -26 l109 0 0 35 0
35 -67 0 c-38 0 -84 3 -103 6 -25 4 -40 2 -48 -9z"/>
<path d="M134 465 c-8 -46 3 -57 52 -53 38 3 39 4 39 43 0 40 0 40 -42 43 -41
3 -42 2 -49 -33z"/>
<path d="M246 485 c-3 -9 -6 -30 -6 -46 0 -28 2 -29 45 -29 39 0 45 3 51 24
11 47 2 61 -42 64 -31 2 -43 -1 -48 -13z"/>
<path d="M357 493 c-4 -3 -7 -24 -7 -45 l0 -38 45 0 c40 0 45 3 46 23 l0 22 9
-22 9 -23 339 0 c249 0 341 3 350 12 9 9 12 9 12 0 0 -8 17 -12 46 -12 l45 0
-3 43 -3 42 -45 0 c-42 0 -45 -2 -51 -30 l-6 -30 -4 30 -4 30 -337 3 -338 2
-1 -22 0 -23 -9 23 c-8 17 -17 22 -48 22 -21 0 -42 -3 -45 -7z"/>
<path d="M1264 486 c-3 -8 -4 -27 -2 -43 3 -26 7 -28 51 -31 43 -3 47 -1 47
20 0 55 -10 68 -51 68 -25 0 -42 -5 -45 -14z"/>
<path d="M1372 458 l3 -43 45 0 c50 0 58 12 41 58 -9 23 -16 27 -51 27 l-41 0
3 -42z"/>
<path d="M30 51 c0 -5 5 -13 10 -16 6 -3 10 -2 10 4 0 5 -4 13 -10 16 -5 3
-10 2 -10 -4z"/>
<path d="M643 48 c-2 -5 73 -8 166 -8 94 0 171 3 171 8 0 9 -330 9 -337 0z"/>
<path d="M1557 53 c-4 -3 -7 -11 -7 -17 0 -6 5 -5 12 2 6 6 9 14 7 17 -3 3 -9
2 -12 -2z"/>
<path d="M576 43 c-4 -5 -121 -10 -259 -13 l-252 -6 257 -2 c173 -1 259 1 263
9 9 13 1 22 -9 12z"/>
<path d="M1029 27 c4 -4 102 -6 217 -5 l209 3 -217 5 c-119 3 -214 2 -209 -3z"/>
</g>
</svg>
